<?xml version="1.0" standalone="no"?>
<!DOCTYPE svg PUBLIC "-//W3C//DTD SVG 20010904//EN"
 "http://www.w3.org/TR/2001/REC-SVG-20010904/DTD/svg10.dtd">
<svg version="1.0" xmlns="http://www.w3.org/2000/svg"
 width="512.000000pt" height="512.000000pt" viewBox="0 0 512.000000 512.000000"
 preserveAspectRatio="xMidYMid meet">

<g transform="translate(0.000000,512.000000) scale(0.100000,-0.100000)"
fill="#f9f9f9" stroke="none">
<path d="M696 4414 c-130 -31 -261 -133 -323 -250 -65 -122 -63 -72 -63 -1336
l0 -1148 2250 0 2250 0 0 1148 c0 1263 2 1214 -62 1335 -67 125 -211 232 -347
257 -35 6 -693 10 -1850 9 -1515 -1 -1805 -3 -1855 -15z m805 -446 c25 -14 46
-37 59 -63 19 -38 20 -62 20 -341 l0 -299 44 -18 c24 -10 71 -43 105 -73 71
-65 125 -164 142 -263 31 -178 -68 -376 -233 -464 l-53 -28 -5 -99 c-4 -79 -9
-104 -26 -126 -53 -72 -122 -90 -193 -52 -64 34 -81 72 -81 183 l0 91 -52 26
c-219 109 -311 377 -203 594 44 89 109 157 193 202 l62 33 0 308 c0 304 0 309
23 342 44 67 128 87 198 47z m1146 -6 c48 -34 63 -78 63 -179 l0 -88 53 -25
c64 -30 164 -128 196 -193 67 -138 67 -276 0 -414 -32 -64 -132 -163 -196
-193 l-52 -24 -3 -312 c-3 -298 -4 -314 -24 -340 -37 -50 -72 -69 -124 -69
-52 0 -87 19 -124 69 -20 26 -21 42 -24 340 l-3 313 -52 23 c-64 29 -163 127
-196 193 -67 138 -67 275 0 414 31 65 132 164 196 193 l51 23 4 101 c3 114 19
149 80 180 43 22 116 16 155 -12z m1113 10 c19 -9 45 -32 57 -51 23 -33 23
-38 23 -342 l0 -309 59 -30 c82 -41 152 -114 196 -204 108 -217 16 -485 -202
-594 l-51 -25 -4 -101 c-4 -120 -21 -154 -93 -181 -55 -21 -103 -14 -146 22
-45 39 -59 79 -59 178 0 83 -1 86 -26 95 -80 31 -183 129 -224 216 -63 131
-62 265 5 401 41 82 129 170 201 200 l44 18 0 299 c0 279 1 303 20 341 36 75
125 105 200 67z"/>
<path d="M1352 2970 c-61 -37 -88 -116 -63 -182 14 -36 60 -77 101 -88 53 -14
97 -2 140 39 52 50 61 103 28 168 -39 78 -133 107 -206 63z"/>
<path d="M2488 3399 c-43 -22 -78 -81 -78 -129 0 -50 35 -107 80 -130 21 -11
53 -20 70 -20 76 0 150 74 150 150 0 50 -35 107 -80 130 -49 25 -94 25 -142
-1z"/>
<path d="M3620 2972 c-50 -26 -84 -97 -75 -154 9 -52 66 -112 115 -122 45 -9
102 9 135 42 121 121 -22 314 -175 234z"/>
<path d="M62 1360 c-42 -26 -66 -81 -59 -134 8 -54 86 -209 138 -271 66 -80
147 -143 244 -190 167 -81 6 -76 2210 -73 l1960 3 70 23 c146 49 264 128 352
233 53 65 132 220 140 275 7 53 -17 108 -59 134 -33 20 -43 20 -2498 20 -2455
0 -2465 0 -2498 -20z"/>
</g>
</svg>
