<?xml version="1.0" standalone="no"?>
<!DOCTYPE svg PUBLIC "-//W3C//DTD SVG 20010904//EN"
 "http://www.w3.org/TR/2001/REC-SVG-20010904/DTD/svg10.dtd">
<svg version="1.0" xmlns="http://www.w3.org/2000/svg"
 width="512.000000pt" height="512.000000pt" viewBox="0 0 512.000000 512.000000"
 preserveAspectRatio="xMidYMid meet">

<g transform="translate(0.000000,512.000000) scale(0.100000,-0.100000)"
fill="#f9f9f9" stroke="none">
<path d="M1646 4049 c-149 -22 -328 -92 -457 -180 -90 -61 -219 -188 -279
-275 -70 -101 -135 -243 -167 -361 -26 -96 -27 -106 -31 -474 l-4 -376 -87 -6
c-271 -17 -496 -191 -587 -452 -25 -71 -28 -94 -28 -205 0 -114 2 -133 30
-211 72 -203 213 -343 419 -416 l80 -28 2020 0 2020 0 89 29 c203 67 350 213
422 421 25 71 28 94 28 205 0 109 -3 134 -26 201 -69 197 -202 338 -388 412
-99 39 -166 47 -383 47 -186 0 -199 1 -192 18 39 102 47 303 16 425 -67 260
-279 475 -536 543 -234 61 -522 -6 -682 -159 -18 -17 -35 -29 -37 -26 -2 2
-13 40 -25 83 -80 291 -303 556 -584 690 -184 88 -427 125 -631 95z m983
-1394 c23 -12 213 -216 367 -397 86 -99 23 -248 -104 -248 -55 0 -88 17 -140
74 l-42 46 0 -223 c0 -191 -2 -227 -18 -257 -53 -107 -211 -107 -264 0 -16 30
-18 66 -18 257 l0 223 -42 -46 c-52 -57 -85 -74 -140 -74 -58 0 -104 30 -128
83 -22 48 -24 81 -7 119 17 38 355 417 392 440 36 22 105 24 144 3z"/>
</g>
</svg>
